<svg width="30" height="30" viewBox="0 0 30 30" fill="none" xmlns="http://www.w3.org/2000/svg">
<path d="M15.491 1.81348C8.47297 1.81348 2.79688 7.52584 2.79688 14.5801C2.79688 20.9454 7.4393 26.2406 13.5144 27.2017V18.2796H10.2864V14.5801H13.5144V11.7693C13.5144 8.5595 15.4185 6.80046 18.3019 6.80046C19.6982 6.80046 21.149 7.05434 21.149 7.05434V10.1916H19.5531C17.9754 10.1916 17.4858 11.1709 17.4858 12.1864V14.5801H21.0039L20.4417 18.2796H17.4858V27.2017C23.5609 26.2406 28.2033 20.9635 28.2033 14.5801C28.2033 7.52584 22.5272 1.81348 15.5091 1.81348H15.491Z" fill="#CBCBCB"/>
</svg>
