<svg width="30" height="30" viewBox="0 0 30 30" fill="none" xmlns="http://www.w3.org/2000/svg">
<path fill-rule="evenodd" clip-rule="evenodd" d="M22.9678 2.41797C24.0366 2.41797 25.0616 2.84254 25.8173 3.59829C26.5731 4.35404 26.9977 5.37906 26.9977 6.44785V22.5674C26.9977 23.6362 26.5731 24.6612 25.8173 25.4169C25.0616 26.1727 24.0366 26.5973 22.9678 26.5973H6.84824C5.77945 26.5973 4.75443 26.1727 3.99869 25.4169C3.24294 24.6612 2.81836 23.6362 2.81836 22.5674V6.44785C2.81836 5.37906 3.24294 4.35404 3.99869 3.59829C4.75443 2.84254 5.77945 2.41797 6.84824 2.41797H22.9678ZM9.53483 11.821C9.17857 11.821 8.8369 11.9626 8.58498 12.2145C8.33306 12.4664 8.19154 12.8081 8.19154 13.1643V19.8808C8.19154 20.2371 8.33306 20.5787 8.58498 20.8307C8.8369 21.0826 9.17857 21.2241 9.53483 21.2241C9.8911 21.2241 10.2328 21.0826 10.4847 20.8307C10.7366 20.5787 10.8781 20.2371 10.8781 19.8808V13.1643C10.8781 12.8081 10.7366 12.4664 10.4847 12.2145C10.2328 11.9626 9.8911 11.821 9.53483 11.821ZM13.5647 10.4777C13.2085 10.4777 12.8668 10.6193 12.6149 10.8712C12.3629 11.1231 12.2214 11.4648 12.2214 11.821V19.8808C12.2214 20.2371 12.3629 20.5787 12.6149 20.8307C12.8668 21.0826 13.2085 21.2241 13.5647 21.2241C13.921 21.2241 14.2627 21.0826 14.5146 20.8307C14.7665 20.5787 14.908 20.2371 14.908 19.8808V14.9643C15.3177 14.5022 16.0095 13.9596 16.7792 13.6304C17.2265 13.4397 17.8995 13.3618 18.367 13.5096C18.5221 13.5489 18.6602 13.6375 18.7606 13.7621C18.8304 13.8561 18.9379 14.0657 18.9379 14.5076V19.8808C18.9379 20.2371 19.0794 20.5787 19.3313 20.8307C19.5833 21.0826 19.9249 21.2241 20.2812 21.2241C20.6375 21.2241 20.9791 21.0826 21.231 20.8307C21.483 20.5787 21.6245 20.2371 21.6245 19.8808V14.5076C21.6245 13.6076 21.3961 12.807 20.9206 12.1649C20.483 11.5827 19.8706 11.1557 19.173 10.9465C17.9613 10.5664 16.6194 10.7773 15.7234 11.1615C15.4366 11.2848 15.1571 11.4248 14.8865 11.5806C14.8302 11.2711 14.667 10.9911 14.4255 10.7896C14.1839 10.5881 13.8793 10.4777 13.5647 10.4777ZM9.53483 7.79115C9.17857 7.79115 8.8369 7.93267 8.58498 8.18459C8.33306 8.43651 8.19154 8.77818 8.19154 9.13444C8.19154 9.49071 8.33306 9.83238 8.58498 10.0843C8.8369 10.3362 9.17857 10.4777 9.53483 10.4777C9.8911 10.4777 10.2328 10.3362 10.4847 10.0843C10.7366 9.83238 10.8781 9.49071 10.8781 9.13444C10.8781 8.77818 10.7366 8.43651 10.4847 8.18459C10.2328 7.93267 9.8911 7.79115 9.53483 7.79115Z" fill="#CBCBCB"/>
</svg>
