<svg width="26" height="26" viewBox="0 0 26 26" fill="none" xmlns="http://www.w3.org/2000/svg">
<path fill-rule="evenodd" clip-rule="evenodd" d="M5.66245 0.0722656C4.23148 0.0722655 2.85909 0.640573 1.84705 1.65222C0.835009 2.66388 0.266175 4.03605 0.265625 5.46701V19.8585C0.265625 21.2899 0.834217 22.6626 1.84632 23.6747C2.85842 24.6868 4.23112 25.2554 5.66245 25.2554H20.054C21.4849 25.2548 22.8571 24.686 23.8688 23.6739C24.8804 22.6619 25.4487 21.2895 25.4487 19.8585V5.46701C25.4482 4.03641 24.8796 2.66455 23.868 1.65296C22.8564 0.641365 21.4846 0.0728149 20.054 0.0722656H5.66245ZM21.6063 5.4753C21.6063 5.88755 21.4425 6.28292 21.151 6.57442C20.8595 6.86592 20.4641 7.02969 20.0519 7.02969C19.6396 7.02969 19.2443 6.86592 18.9528 6.57442C18.6613 6.28292 18.4975 5.88755 18.4975 5.4753C18.4975 5.06306 18.6613 4.66769 18.9528 4.37619C19.2443 4.08468 19.6396 3.92092 20.0519 3.92092C20.4641 3.92092 20.8595 4.08468 21.151 4.37619C21.4425 4.66769 21.6063 5.06306 21.6063 5.4753ZM12.8603 8.35195C11.717 8.35195 10.6205 8.80612 9.81207 9.61456C9.00363 10.423 8.54945 11.5195 8.54945 12.6628C8.54945 13.8061 9.00363 14.9025 9.81207 15.711C10.6205 16.5194 11.717 16.9736 12.8603 16.9736C14.0036 16.9736 15.1001 16.5194 15.9085 15.711C16.7169 14.9025 17.1711 13.8061 17.1711 12.6628C17.1711 11.5195 16.7169 10.423 15.9085 9.61456C15.1001 8.80612 14.0036 8.35195 12.8603 8.35195ZM6.47487 12.6628C6.47487 10.9698 7.1474 9.34618 8.34451 8.14907C9.54161 6.95197 11.1652 6.27944 12.8582 6.27944C14.5512 6.27944 16.1748 6.95197 17.3719 8.14907C18.569 9.34618 19.2415 10.9698 19.2415 12.6628C19.2415 14.3557 18.569 15.9794 17.3719 17.1765C16.1748 18.3736 14.5512 19.0461 12.8582 19.0461C11.1652 19.0461 9.54161 18.3736 8.34451 17.1765C7.1474 15.9794 6.47487 14.3557 6.47487 12.6628Z" fill="#CBCBCB"/>
</svg>
