<svg width="61" height="65" viewBox="0 0 61 65" fill="none" xmlns="http://www.w3.org/2000/svg">
<path d="M19.3139 27.7672C16.2848 28.7375 13.5537 30.4633 11.3793 32.7815C9.20479 35.0996 7.65882 37.9334 6.88767 41.0145C6.11651 44.0957 6.14569 47.3224 6.97244 50.3892C7.79919 53.456 9.39616 56.2614 11.6122 58.54C13.8282 60.8186 16.5901 62.4949 19.6363 63.4104C22.6825 64.3258 25.9123 64.4501 29.02 63.7715C32.1278 63.0928 35.0107 61.6337 37.3958 59.5322C39.781 57.4307 41.5896 54.7563 42.6503 51.7621L38.8954 50.4363C38.0606 52.7926 36.6374 54.8972 34.7604 56.551C32.8833 58.2048 30.6146 59.3531 28.169 59.8871C25.7233 60.4212 23.1816 60.3234 20.7843 59.603C18.3871 58.8825 16.2137 57.5633 14.4697 55.7702C12.7258 53.977 11.469 51.7693 10.8184 49.3558C10.1678 46.9424 10.1448 44.4032 10.7517 41.9784C11.3586 39.5536 12.5752 37.3236 14.2864 35.4993C15.9976 33.675 18.1469 32.3168 20.5307 31.5533L19.3139 27.7672Z" fill="#658A03"/>
<path d="M30.3112 25.5034C32.4342 24.793 34.3376 23.5546 35.8389 21.9068C37.3403 20.2591 38.3894 18.2572 38.8858 16.0928C39.3822 13.9285 39.3092 11.6741 38.6739 9.54569C38.0386 7.41725 36.8622 5.48599 35.2574 3.93686C33.6526 2.38773 31.6731 1.2726 29.5085 0.698257C27.3438 0.123917 25.0666 0.109602 22.8948 0.656681C20.723 1.20376 18.7294 2.29391 17.1048 3.82274C15.4803 5.35158 14.2792 7.26789 13.6167 9.38817L15.4405 9.94722C16.0064 8.13618 17.0323 6.49937 18.4199 5.19353C19.8075 3.88768 21.5103 2.95653 23.3654 2.48925C25.2204 2.02196 27.1655 2.03419 29.0144 2.52476C30.8633 3.01533 32.5541 3.96781 33.9248 5.291C35.2956 6.61419 36.3004 8.26376 36.843 10.0818C37.3857 11.8998 37.448 13.8253 37.024 15.674C36.6 17.5227 35.7039 19.2326 34.4216 20.64C33.1392 22.0474 31.5135 23.1052 29.7001 23.712L30.3112 25.5034Z" fill="#CBCBCB"/>
<rect y="4.3125" width="3" height="36.0007" transform="rotate(-45.3578 0 4.3125)" fill="#CBCBCB"/>
<rect x="42.4707" y="46.1953" width="3" height="21.9735" transform="rotate(-45.3578 42.4707 46.1953)" fill="#CBCBCB"/>
<rect x="46.8809" y="36.6953" width="1.3624" height="10.0708" transform="rotate(19.7936 46.8809 36.6953)" fill="#CBCBCB"/>
<rect x="50.7246" y="36.1465" width="1.3624" height="7.7574" transform="rotate(88.4208 50.7246 36.1465)" fill="#CBCBCB"/>
</svg>
